<?xml version="1.0" encoding="utf-8"?>
<!-- Generator: Adobe Illustrator 17.1.0, SVG Export Plug-In . SVG Version: 6.00 Build 0)  -->
<!DOCTYPE svg PUBLIC "-//W3C//DTD SVG 1.1//EN" "http://www.w3.org/Graphics/SVG/1.1/DTD/svg11.dtd">
<svg version="1.1" id="Layer_1" xmlns="http://www.w3.org/2000/svg" xmlns:xlink="http://www.w3.org/1999/xlink" x="0px" y="0px"
	 viewBox="0 0 680.3 793.7" enable-background="new 0 0 680.3 793.7" xml:space="preserve">
<path fill="#FFFFFF" d="M510.2,283.5v-56.7v-56.7h-56.7v-56.7h-56.7V56.7h-56.7h-56.7h-56.7v56.7h-56.7h-56.7v56.7v56.7H56.7v56.7
	v56.7v56.7v56.7v56.7v56.7v56.7v56.7h56.7h56.7v-56.7h56.7v56.7h56.7h56.7h56.7v-56.7h56.7v-56.7h56.7v-56.7h56.7v-56.7v-56.7v-56.7
	v-56.7H510.2z M453.5,340.2v56.7h-56.7v-56.7v-56.7h56.7V340.2z M283.5,283.5v56.7v56.7h-56.7v-56.7v-56.7H283.5z"/>
<g>
	<polygon fill="#DBDBDB" points="283.5,680.3 283.5,737 340.2,737 396.9,737 396.9,680.3 340.2,680.3 	"/>
	<polygon fill="#DBDBDB" points="566.9,226.8 566.9,170.1 566.9,113.4 510.2,113.4 453.5,113.4 453.5,170.1 510.2,170.1 
		510.2,226.8 510.2,283.5 566.9,283.5 566.9,340.2 566.9,396.9 566.9,453.5 566.9,510.2 510.2,510.2 510.2,566.9 453.5,566.9 
		453.5,623.6 510.2,623.6 510.2,680.3 566.9,680.3 566.9,737 623.6,737 623.6,680.3 623.6,623.6 623.6,566.9 623.6,510.2 
		623.6,453.5 623.6,396.9 623.6,340.2 623.6,283.5 623.6,226.8 	"/>
	<rect x="56.7" y="680.3" fill="#DBDBDB" width="56.7" height="56.7"/>
	<rect x="396.9" y="623.6" fill="#DBDBDB" width="56.7" height="56.7"/>
	<rect x="396.9" y="56.7" fill="#DBDBDB" width="56.7" height="56.7"/>
</g>
<g opacity="0.3">
	<polygon fill="#333333" points="113.4,170.1 113.4,113.4 56.7,113.4 56.7,170.1 56.7,226.8 113.4,226.8 	"/>
	<rect x="113.4" y="680.3" fill="#333333" width="56.7" height="56.7"/>
	<polygon fill="#333333" points="226.8,113.4 226.8,56.7 170.1,56.7 113.4,56.7 113.4,113.4 170.1,113.4 	"/>
	<polygon fill="#333333" points="56.7,623.6 56.7,566.9 56.7,510.2 56.7,453.5 56.7,396.9 56.7,340.2 56.7,283.5 56.7,226.8 
		0,226.8 0,283.5 0,340.2 0,396.9 0,453.5 0,510.2 0,566.9 0,623.6 0,680.3 0,737 56.7,737 56.7,680.3 	"/>
	<polygon fill="#333333" points="340.2,56.7 396.9,56.7 453.5,56.7 453.5,0 396.9,0 340.2,0 283.5,0 226.8,0 226.8,56.7 283.5,56.7 
			"/>
	<rect x="56.7" y="737" fill="#333333" width="56.7" height="56.7"/>
	<polygon fill="#333333" points="510.2,113.4 566.9,113.4 566.9,170.1 566.9,226.8 623.6,226.8 623.6,170.1 623.6,113.4 
		566.9,113.4 566.9,56.7 510.2,56.7 453.5,56.7 453.5,113.4 	"/>
	<rect x="453.5" y="623.6" fill="#333333" width="56.7" height="56.7"/>
	<rect x="396.9" y="680.3" fill="#333333" width="56.7" height="56.7"/>
	<polygon fill="#333333" points="623.6,226.8 623.6,283.5 623.6,340.2 623.6,396.9 623.6,453.5 623.6,510.2 623.6,566.9 
		623.6,623.6 623.6,680.3 623.6,737 680.3,737 680.3,680.3 680.3,623.6 680.3,566.9 680.3,510.2 680.3,453.5 680.3,396.9 
		680.3,340.2 680.3,283.5 680.3,226.8 	"/>
	<polygon fill="#333333" points="566.9,680.3 510.2,680.3 510.2,737 566.9,737 566.9,793.7 623.6,793.7 623.6,737 566.9,737 	"/>
	<polygon fill="#333333" points="283.5,737 283.5,793.7 340.2,793.7 396.9,793.7 396.9,737 340.2,737 	"/>
	<rect x="170.1" y="623.6" fill="#333333" width="56.7" height="56.7"/>
	<rect x="226.8" y="680.3" fill="#333333" width="56.7" height="56.7"/>
</g>
<g>
	<polygon fill="#333333" points="283.5,340.2 283.5,283.5 226.8,283.5 226.8,340.2 226.8,396.9 283.5,396.9 	"/>
	<circle fill="#333333" cx="340.2" cy="510.2" r="56.7"/>
	<polygon fill="#333333" points="396.9,283.5 396.9,340.2 396.9,396.9 453.5,396.9 453.5,340.2 453.5,283.5 	"/>
</g>
</svg>
